<?xml version="1.0" encoding="UTF-8" standalone="no"?>
<!-- Created with Inkscape (http://www.inkscape.org/) -->

<svg
   width="297mm"
   height="180mm"
   viewBox="0 0 297 180"
   version="1.1"
   id="svg1"
   xml:space="preserve"
   inkscape:version="1.1.2 (0a00cf5339, 2022-02-04)"
   sodipodi:docname="Logo Saude Total.svg"
   xmlns:inkscape="http://www.inkscape.org/namespaces/inkscape"
   xmlns:sodipodi="http://sodipodi.sourceforge.net/DTD/sodipodi-0.dtd"
   xmlns="http://www.w3.org/2000/svg"
   xmlns:svg="http://www.w3.org/2000/svg"><sodipodi:namedview
     id="namedview1"
     pagecolor="#ffffff"
     bordercolor="#000000"
     borderopacity="0.25"
     inkscape:showpageshadow="2"
     inkscape:pageopacity="0.0"
     inkscape:pagecheckerboard="0"
     inkscape:deskcolor="#d1d1d1"
     inkscape:document-units="mm"
     showguides="true"
     inkscape:zoom="0.36124088"
     inkscape:cx="321.11537"
     inkscape:cy="307.27419"
     inkscape:window-width="1920"
     inkscape:window-height="1024"
     inkscape:window-x="0"
     inkscape:window-y="0"
     inkscape:window-maximized="1"
     inkscape:current-layer="layer1"
     inkscape:export-bgcolor="#ffffff00"
     inkscape:pageshadow="2"
     showgrid="false"
     units="mm"
     height="180mm"
     inkscape:guide-bbox="true" /><defs
     id="defs1" /><g
     inkscape:label="Camada 1"
     inkscape:groupmode="layer"
     id="layer1"
     transform="translate(3.9558229,-16.660057)"><g
       id="g13503"
       transform="translate(-5.3562805,10.330057)"><g
         aria-label="S"
         id="text1901"
         style="font-weight:bold;font-size:133.706px;line-height:1.25;font-family:Waree;-inkscape-font-specification:'Waree, Bold';text-align:center;text-anchor:middle;fill:#16e800;stroke:#ff6a00;stroke-width:0"><path
           d="m 159.22874,46.987392 q 16.19096,0 34.07936,4.831174 v 20.63042 q -16.19096,-7.246762 -30.0969,-7.246762 -9.53178,0 -13.57952,2.676732 -4.04774,2.611445 -4.04774,7.507906 0,4.113026 3.13373,6.267469 3.13374,2.089156 10.31521,3.590737 l 10.70693,2.154443 q 15.66867,3.133735 22.78486,9.727634 7.18148,6.528615 7.18148,19.128835 0,16.71325 -9.9235,24.28645 -9.92349,7.57319 -28.85647,7.57319 -18.47598,0 -37.27838,-6.98562 v -21.21799 q 18.93298,9.98878 34.86279,9.98878 5.15761,0 8.68306,-0.9793 3.59074,-1.04457 5.28818,-2.74201 1.69744,-1.76273 2.3503,-3.39488 0.65286,-1.63216 0.65286,-3.46017 0,-4.89646 -3.39488,-7.31205 -3.32959,-2.41558 -11.42507,-4.17831 l -9.72764,-2.15444 q -13.90595,-3.06845 -21.02213,-9.662349 -7.11619,-6.5939 -7.11619,-18.802407 0,-15.081098 9.66234,-22.65429 9.66235,-7.573192 26.76732,-7.573192 z"
           id="path13471" /></g><g
         aria-label="T"
         id="text9801"
         style="font-weight:bold;font-size:133.706px;line-height:1.25;font-family:Waree;-inkscape-font-specification:'Waree, Bold';text-align:center;text-anchor:middle;stroke:#ff6a00;stroke-width:0"><path
           d="m 197.65188,50.584937 h 89.83371 V 69.583201 H 255.16896 V 148.05713 H 230.0338 V 69.583201 h -32.38192 z"
           id="path13474" /></g><path
         id="rect11484"
         style="fill:#16e800;stroke:#ff6a00;stroke-width:0"
         d="m 48.328457,50.841816 h 27.918136 c 5.764727,0 10.405644,4.640917 10.405644,10.405643 v 76.296011 c 0,5.76473 -4.640917,10.40565 -10.405644,10.40565 H 48.328457 c -5.764727,0 -10.405644,-4.64092 -10.405644,-10.40565 V 61.247459 c 0,-5.764726 4.640917,-10.405643 10.405644,-10.405643 z" /><path
         id="rect11484-8"
         style="fill:#16e800;stroke:#ff6a00;stroke-width:0"
         transform="rotate(-90)"
         d="m -111.34894,13.733875 c 17.253681,-0.0076 30.553773,0 39.277034,-0.03442 17.368363,-0.06854 20.954648,0.991495 21.167949,15.243213 0.06214,4.151638 0.06214,13.384861 0.06214,18.66873 0,0 -24.188933,28.421663 -24.188933,39.015747 v 11.802794 c 0,6.875821 -5.535413,12.411241 -12.41124,12.411241 h -23.90695 c -6.87582,0 -12.41124,-5.53542 -12.41124,-12.411241 v -72.28482 c 0,-6.875827 5.53542,-12.41124 12.41124,-12.41124 z"
         sodipodi:nodetypes="cssccsssssc" /></g></g></svg>
